<svg xmlns="http://www.w3.org/2000/svg" viewBox="0 0 64 64" role="img" aria-label="Trading Strategy Simulator icon">
  <defs>
    <linearGradient id="bg" x1="16" y1="6" x2="54" y2="58" gradientUnits="userSpaceOnUse">
      <stop offset="0" stop-color="#0b1020" />
      <stop offset="1" stop-color="#141f3a" />
    </linearGradient>
    <linearGradient id="stroke" x1="14" y1="48" x2="52" y2="14" gradientUnits="userSpaceOnUse">
      <stop offset="0" stop-color="#6ab8ff" />
      <stop offset="1" stop-color="#9cd3ff" />
    </linearGradient>
    <filter id="glow" x="-20%" y="-20%" width="140%" height="140%">
      <feDropShadow dx="0" dy="2" stdDeviation="2.2" flood-color="#6ab8ff" flood-opacity="0.32" />
    </filter>
  </defs>

  <rect x="4" y="4" width="56" height="56" rx="14" fill="url(#bg)" stroke="#1d2a45" stroke-width="2" />
  <path
    d="M14 44 C20 44 20 40 26 38 C32 36 32 41 38 35 C42 31 44 30 50 28"
    fill="none"
    stroke="rgba(255,255,255,0.08)"
    stroke-width="3"
    stroke-linecap="round"
    stroke-linejoin="round"
  />

  <g filter="url(#glow)">
    <path
      d="M14 44 L24 35.5 L32 39.5 L42 28 L50 22"
      fill="none"
      stroke="url(#stroke)"
      stroke-width="4"
      stroke-linecap="round"
      stroke-linejoin="round"
    />
    <path d="M50 22 L55 18 L54 26 Z" fill="url(#stroke)" />
    <circle cx="14" cy="44" r="3" fill="#6ab8ff" />
    <circle cx="24" cy="35.5" r="3" fill="#6ab8ff" />
    <circle cx="32" cy="39.5" r="3" fill="#6ab8ff" />
    <circle cx="42" cy="28" r="3" fill="#6ab8ff" />
    <circle cx="50" cy="22" r="3" fill="#6ab8ff" />
  </g>
</svg>
